# xmcd
#
# Track frame offsets: 
#        150
#        20285
#        44765
#        58935
#        82887
#        96465
#        119862
#        159707
#
# Disc length: 2289 seconds
#
# Revision: 5
# Processed by: cddbd v1.5.2PL0 Copyright (c) Steve Scherf et al.
# Submitted via: ExactAudioCopyFreeDBPlugin 1.0
#
DISCID=7008ef08
DTITLE=Albert Collins - Ice Pickin'
DYEAR=1978
DGENRE=Blues
TTITLE0=Honey. Hush! (Talking Woman Blues)
TTITLE1=When the Welfare Turns Its Back on You
TTITLE2=Ice Pick
TTITLE3=Cold, Cold Feeling
TTITLE4=Too Tired
TTITLE5=Master Charge
TTITLE6=Conversation with Collins
TTITLE7=Avalanche
EXTD=
EXTT0=
EXTT1=
EXTT2=
EXTT3=
EXTT4=
EXTT5=
EXTT6=
EXTT7=
PLAYORDER=
